<?xml version="1.0" encoding="UTF-8"?>
<svg xmlns="http://www.w3.org/2000/svg" xmlns:xlink="http://www.w3.org/1999/xlink" width="36pt" height="21pt" viewBox="0 0 36 21" version="1.1">
<g id="surface1">
<path style=" stroke:none;fill-rule:nonzero;fill:rgb(100%,100%,100%);fill-opacity:1;" d="M 35.578125 18.8125 C 35.535156 18.71875 35.496094 18.640625 35.457031 18.574219 C 34.835938 17.433594 33.648438 16.035156 31.898438 14.375 L 31.863281 14.335938 L 31.824219 14.296875 L 31.808594 14.296875 C 31.011719 13.523438 30.507812 13.003906 30.296875 12.738281 C 29.914062 12.234375 29.824219 11.71875 30.035156 11.199219 C 30.1875 10.804688 30.746094 9.976562 31.714844 8.710938 C 32.222656 8.039062 32.625 7.5 32.921875 7.09375 C 35.070312 4.179688 36.003906 2.316406 35.714844 1.503906 L 35.605469 1.316406 C 35.53125 1.199219 35.339844 1.097656 35.027344 1 C 34.71875 0.90625 34.320312 0.890625 33.835938 0.953125 L 28.472656 0.992188 C 28.386719 0.960938 28.261719 0.960938 28.101562 1 C 27.941406 1.039062 27.859375 1.058594 27.859375 1.058594 L 27.765625 1.105469 L 27.691406 1.164062 C 27.628906 1.199219 27.5625 1.265625 27.488281 1.363281 C 27.414062 1.457031 27.351562 1.570312 27.300781 1.695312 C 26.714844 3.230469 26.054688 4.65625 25.308594 5.972656 C 24.847656 6.757812 24.425781 7.441406 24.042969 8.015625 C 23.65625 8.59375 23.332031 9.019531 23.074219 9.289062 C 22.8125 9.5625 22.578125 9.78125 22.367188 9.945312 C 22.152344 10.109375 21.992188 10.179688 21.882812 10.15625 C 21.769531 10.128906 21.664062 10.101562 21.566406 10.078125 C 21.390625 9.964844 21.25 9.808594 21.144531 9.613281 C 21.039062 9.417969 20.96875 9.167969 20.933594 8.871094 C 20.894531 8.574219 20.871094 8.316406 20.867188 8.101562 C 20.859375 7.886719 20.863281 7.582031 20.875 7.1875 C 20.886719 6.796875 20.894531 6.527344 20.894531 6.390625 C 20.894531 5.910156 20.902344 5.386719 20.921875 4.820312 C 20.941406 4.257812 20.957031 3.8125 20.96875 3.480469 C 20.980469 3.152344 20.988281 2.804688 20.988281 2.433594 C 20.988281 2.070312 20.964844 1.78125 20.921875 1.570312 C 20.878906 1.363281 20.8125 1.160156 20.726562 0.960938 C 20.640625 0.765625 20.511719 0.613281 20.34375 0.507812 C 20.175781 0.398438 19.96875 0.3125 19.722656 0.25 C 19.0625 0.0976562 18.226562 0.015625 17.207031 0 C 14.898438 -0.0234375 13.414062 0.128906 12.757812 0.457031 C 12.496094 0.597656 12.257812 0.789062 12.050781 1.027344 C 11.824219 1.308594 11.792969 1.460938 11.957031 1.484375 C 12.699219 1.597656 13.226562 1.871094 13.539062 2.300781 L 13.648438 2.53125 C 13.738281 2.695312 13.824219 2.988281 13.910156 3.40625 C 13.996094 3.824219 14.054688 4.285156 14.078125 4.792969 C 14.140625 5.71875 14.140625 6.507812 14.078125 7.167969 C 14.015625 7.828125 13.957031 8.339844 13.902344 8.707031 C 13.847656 9.074219 13.761719 9.371094 13.648438 9.601562 C 13.539062 9.828125 13.464844 9.96875 13.425781 10.019531 C 13.390625 10.070312 13.359375 10.101562 13.332031 10.113281 C 13.171875 10.179688 13.003906 10.210938 12.828125 10.210938 C 12.65625 10.210938 12.445312 10.121094 12.195312 9.945312 C 11.949219 9.765625 11.691406 9.523438 11.425781 9.210938 C 11.160156 8.902344 10.855469 8.46875 10.519531 7.910156 C 10.1875 7.351562 9.839844 6.695312 9.480469 5.933594 L 9.179688 5.382812 C 8.992188 5.027344 8.738281 4.511719 8.417969 3.832031 C 8.09375 3.152344 7.808594 2.5 7.5625 1.863281 C 7.460938 1.597656 7.3125 1.394531 7.113281 1.253906 L 7.019531 1.199219 C 6.957031 1.148438 6.859375 1.09375 6.722656 1.035156 C 6.585938 0.980469 6.445312 0.9375 6.292969 0.914062 L 1.191406 0.953125 C 0.671875 0.953125 0.316406 1.074219 0.128906 1.3125 L 0.0546875 1.425781 C 0.0195312 1.492188 0 1.59375 0 1.730469 C 0 1.871094 0.0351562 2.042969 0.113281 2.246094 C 0.855469 4.03125 1.667969 5.753906 2.542969 7.414062 C 3.417969 9.078125 4.175781 10.414062 4.824219 11.425781 C 5.46875 12.441406 6.125 13.398438 6.796875 14.296875 C 7.46875 15.199219 7.910156 15.773438 8.128906 16.027344 C 8.347656 16.28125 8.515625 16.472656 8.640625 16.597656 L 9.105469 17.054688 C 9.402344 17.359375 9.839844 17.722656 10.417969 18.148438 C 10.996094 18.570312 11.636719 18.988281 12.335938 19.402344 C 13.039062 19.8125 13.855469 20.148438 14.785156 20.410156 C 15.71875 20.667969 16.625 20.773438 17.503906 20.722656 L 19.648438 20.722656 C 20.082031 20.683594 20.410156 20.546875 20.632812 20.304688 L 20.707031 20.210938 C 20.757812 20.132812 20.804688 20.015625 20.847656 19.859375 C 20.890625 19.699219 20.914062 19.527344 20.914062 19.335938 C 20.902344 18.789062 20.941406 18.300781 21.035156 17.863281 C 21.125 17.425781 21.230469 17.097656 21.351562 16.875 C 21.46875 16.652344 21.601562 16.464844 21.75 16.3125 C 21.898438 16.160156 22.003906 16.070312 22.066406 16.039062 C 22.128906 16.007812 22.179688 15.984375 22.214844 15.972656 C 22.515625 15.871094 22.863281 15.96875 23.269531 16.265625 C 23.671875 16.566406 24.050781 16.929688 24.40625 17.367188 C 24.757812 17.804688 25.183594 18.296875 25.679688 18.84375 C 26.175781 19.386719 26.613281 19.792969 26.984375 20.058594 L 27.355469 20.285156 C 27.605469 20.4375 27.925781 20.578125 28.324219 20.707031 C 28.722656 20.832031 29.070312 20.863281 29.367188 20.800781 L 34.136719 20.722656 C 34.605469 20.722656 34.972656 20.644531 35.234375 20.488281 C 35.496094 20.328125 35.648438 20.152344 35.699219 19.964844 C 35.75 19.773438 35.75 19.558594 35.710938 19.316406 C 35.664062 19.078125 35.621094 18.90625 35.578125 18.8125 Z M 35.578125 18.8125 "/>
</g>
</svg>
